<svg version="1.1" id="Layer_1" xmlns="http://www.w3.org/2000/svg" xmlns:xlink="http://www.w3.org/1999/xlink" x="0px" y="0px"
	 viewBox="0 0 215.54 187.25" style="enable-background:new 0 0 215.54 187.25;" xml:space="preserve">
<style type="text/css">
	.st0{fill:#001E14;}
	.st1{fill:#FA9600;}
	.st2{fill:#F03C00;}
	.st3{fill:#AAAAFF;}
	.st4{fill:#7D00E1;}
	.st5{fill:#320A0A;}
	.st6{fill:#230F32;}
	.st7{fill:#78E1FF;}
	.st8{fill:#64FAAA;}
	.st9{fill:#006EFF;}
	.st10{fill:#F2F2F2;}
	.st11{fill:#CCCCCC;}
	.st12{fill:#999999;}
	.st13{fill:#6D6D6D;}
	.st14{fill:#383838;}
	.st15{fill:#1A1A1A;}
	.st16{fill:#00C864;}
	.st17{fill:#001941;}
	.st18{fill:#FFFFFF;}
</style>
<g>
	<polygon class="st17" points="113.45,187.25 137.43,93.13 142.43,93.13 167.32,187.25 193,187.25 159.71,61.33 122.41,61.33
		99.13,152.7 93.87,152.7 70.59,61.33 33.29,61.33 0,187.25 25.68,187.25 50.57,93.13 55.57,93.13 79.55,187.25 	"/>
	<path class="st17" d="M215.54,24.53v-4C204.76,19.32,196.22,10.77,195,0h-4c-1.22,10.77-9.77,19.32-20.54,20.54v4
		c10.77,1.22,19.32,9.77,20.54,20.54h4C196.22,34.3,204.76,25.75,215.54,24.53z"/>
</g>
</svg>
